<svg width="204" height="187" viewBox="0 0 204 187" fill="none" xmlns="http://www.w3.org/2000/svg">
<circle cx="94.8571" cy="101.391" r="10.9398" stroke="black" stroke-width="10"/>
<path d="M9.59399 99.0396C9.59399 96.3489 11.7234 94.1407 14.4123 94.0429L70.1641 92.0156C72.9949 91.9126 75.3458 94.1796 75.3458 97.0123V106.2C75.3458 109.02 73.0138 111.283 70.1943 111.197L14.4425 109.508C11.7413 109.426 9.59399 107.213 9.59399 104.51V99.0396Z" fill="black"/>
<rect x="69.3684" y="98.2031" width="13.5489" height="6.37593" fill="black"/>
<path d="M136.171 177.424C133.841 178.769 130.863 178.029 129.434 175.749L99.8027 128.48C98.2982 126.08 99.086 122.911 101.539 121.495L109.496 116.901C111.938 115.49 115.064 116.379 116.399 118.863L142.812 167.99C144.092 170.371 143.249 173.337 140.908 174.688L136.171 177.424Z" fill="black"/>
<rect x="105.559" y="126.076" width="13.5489" height="6.37593" transform="rotate(-120 105.559 126.076)" fill="black"/>
<path d="M140.589 28.8488C142.919 30.1942 143.767 33.1424 142.507 35.52L116.387 84.8161C115.06 87.3191 111.922 88.2216 109.469 86.8052L101.512 82.2115C99.0693 80.8012 98.276 77.6504 99.7597 75.2514L129.099 27.8137C130.52 25.5153 133.511 24.7623 135.851 26.1136L140.589 28.8488Z" fill="black"/>
<rect x="111.426" y="80.0332" width="13.5489" height="6.37593" transform="rotate(120 111.426 80.0332)" fill="black"/>
<path fill-rule="evenodd" clip-rule="evenodd" d="M105.532 17.6461C102.081 17.2196 98.5664 17 95 17C59.3756 17 28.8698 38.9155 16.2293 70H21.6567C34.0016 41.7455 62.1949 22 95 22C97.4431 22 99.8606 22.1095 102.248 22.3239L105.532 17.6461ZM10 102C10 100.322 10.0487 98.6544 10.1446 97H15.1537C15.0517 98.6536 15 100.321 15 102C15 103.679 15.0517 105.346 15.1537 107H10.1446C10.0487 105.346 10 103.678 10 102ZM16.2293 134C28.8698 165.084 59.3756 187 95 187C98.9905 187 102.917 186.725 106.761 186.193L103.816 181.52C100.921 181.837 97.9795 182 95 182C62.1949 182 34.0016 162.254 21.6567 134H16.2293ZM142.619 172.419C139.677 174.413 136.603 176.227 133.414 177.845L130.735 173.595C133.936 171.994 137.013 170.186 139.951 168.186L142.619 172.419ZM162.618 153.513C173.523 139.22 180 121.366 180 102C180 82.6581 173.54 64.8252 162.659 50.5412L159.635 54.8487C169.297 68.0709 175 84.3694 175 102C175 119.554 169.346 135.787 159.761 148.978L162.618 153.513ZM129.865 29.9769C133.393 31.6876 136.776 33.6498 139.99 35.8402L142.864 31.7474C139.652 29.5548 136.282 27.5767 132.774 25.8338L129.865 29.9769Z" fill="black"/>
<path d="M155.333 139.333V162.667L173.667 151L155.333 139.333Z" fill="black"/>
<path d="M13.3333 125.333V148.667L31.6666 137L13.3333 125.333Z" fill="black"/>
<path d="M97.3333 8.33325V31.6666L115.667 19.9999L97.3333 8.33325Z" fill="black"/>
</svg>
