<svg width="218" height="246" viewBox="0 0 218 246" fill="none" xmlns="http://www.w3.org/2000/svg">
<circle cx="46.4985" cy="128.701" r="5" stroke="black" stroke-width="5.6273"/>
<path d="M4.70288 128.886C4.70288 126.821 6.33706 125.126 8.40068 125.051L32.137 124.188C34.7577 124.093 36.9342 126.191 36.9342 128.814V128.814C36.9342 131.425 34.7753 133.52 32.165 133.441L8.4239 132.721C6.35085 132.658 4.70288 130.96 4.70288 128.886V128.886Z" fill="black"/>
<rect x="34.0039" y="127.139" width="6.6416" height="3.12546" fill="black"/>
<path d="M67.908 165.304C66.1197 166.337 63.8349 165.769 62.7381 164.019L50.1225 143.894C48.7296 141.672 49.4589 138.738 51.7301 137.427V137.427C53.9916 136.121 56.885 136.944 58.1216 139.244L69.3691 160.164C70.3512 161.991 69.7041 164.267 67.908 165.304V165.304Z" fill="black"/>
<rect x="51.7446" y="140.802" width="6.6416" height="3.12546" transform="rotate(-120 51.7446 140.802)" fill="black"/>
<path d="M67.7585 92.4733C69.5468 93.5058 70.1974 95.7684 69.2306 97.593L58.1099 118.581C56.8821 120.898 53.9763 121.734 51.7051 120.422V120.422C49.4436 119.117 48.7091 116.2 50.0828 113.979L62.5764 93.778C63.6673 92.0141 65.9624 91.4363 67.7585 92.4733V92.4733Z" fill="black"/>
<rect x="54.6204" y="118.232" width="6.6416" height="3.12546" transform="rotate(120 54.6204 118.232)" fill="black"/>
<path fill-rule="evenodd" clip-rule="evenodd" d="M51.7315 87.6502C50.0398 87.4412 48.3168 87.3335 46.5686 87.3335C29.1057 87.3335 14.152 98.0763 7.95557 113.314H13.2353V113.703C19.0327 101.091 31.7779 92.3335 46.5686 92.3335C47.5053 92.3335 48.4338 92.3686 49.3529 92.4376L48.6946 91.9754L51.7315 87.6502ZM4.90186 129C4.90186 128.177 4.92571 127.36 4.97276 126.549H9.98249C9.92902 127.359 9.90186 128.177 9.90186 129C9.90186 129.824 9.92901 130.641 9.98246 131.451H4.97274C4.9257 130.64 4.90186 129.823 4.90186 129ZM7.95539 144.686C14.1517 159.924 29.1056 170.667 46.5686 170.667C48.5248 170.667 50.4495 170.532 52.334 170.271L49.3664 165.562C48.4429 165.631 47.5099 165.667 46.5686 165.667C31.7779 165.667 19.0327 156.909 13.2353 144.297V144.686H7.95539ZM69.9113 163.52C68.4691 164.497 66.9625 165.386 65.3992 166.179L62.7199 161.927C64.2948 161.153 65.8061 160.27 67.2438 159.286L69.9113 163.52ZM79.7149 154.251C85.0606 147.245 88.2353 138.493 88.2353 129C88.2353 119.519 85.0685 110.777 79.7348 103.775L76.6988 108.099C80.8198 114.029 83.2353 121.232 83.2353 129C83.2353 136.677 80.8759 143.804 76.8426 149.693L79.7149 154.251ZM62.1738 95.8105C63.9144 96.6303 65.58 97.5829 67.1576 98.6554L70.0313 94.5626C68.4568 93.4878 66.8048 92.5181 65.0854 91.6638L62.1738 95.8105Z" fill="black"/>
<path d="M76.1438 147.301V158.739L85.1307 153.02L76.1438 147.301Z" fill="black"/>
<path d="M6.53589 140.438V151.876L15.5228 146.157L6.53589 140.438Z" fill="black"/>
<path d="M47.7124 83.085V94.5229L56.6993 88.8039L47.7124 83.085Z" fill="black"/>
<rect x="188" width="30" height="30" rx="10" fill="black"/>
<rect x="189" y="56" width="28" height="28" rx="10" fill="black"/>
<rect x="190" y="112" width="26" height="26" rx="10" fill="black"/>
<rect x="191" y="168" width="24" height="24" rx="10" fill="black"/>
<rect x="192" y="224" width="22" height="22" rx="10" fill="black"/>
</svg>
