<svg width="100" height="144" viewBox="0 0 100 144" fill="none" xmlns="http://www.w3.org/2000/svg">
<rect x="2.5" y="141.5" width="139" height="95" rx="17.5" transform="rotate(-90 2.5 141.5)" stroke="black" stroke-width="5"/>
<path d="M60 88.6667V82H70V75.3334H60V68.6667H70V62H60V55.3334H70V48.6667H40V62H30V82H40V95.3334H70V88.6667H60ZM20 97.4L20 46.5667C20 45.5265 20.2054 44.4964 20.6045 43.5358C21.0036 42.5751 21.5885 41.7028 22.3256 40.9687C23.0627 40.2347 23.9376 39.6535 24.8999 39.2585C25.8622 38.8634 26.8931 38.6623 27.9333 38.6667H75.4333C77.5285 38.6667 79.5379 39.499 81.0195 40.9806C82.501 42.4621 83.3333 44.4715 83.3333 46.5667V97.4C83.3377 98.4403 83.1366 99.4712 82.7416 100.433C82.3465 101.396 81.7653 102.271 81.0313 103.008C80.2973 103.745 79.4249 104.33 78.4643 104.729C77.5036 105.128 76.4736 105.333 75.4333 105.333L27.9333 105.333C23.5333 105.333 20 101.8 20 97.4Z" fill="black"/>
</svg>
