<svg width="692" height="396" viewBox="0 0 692 396" fill="none" xmlns="http://www.w3.org/2000/svg">
<rect x="2.5" y="298.5" width="95" height="95" rx="17.5" stroke="black" stroke-width="5"/>
<rect x="30" y="326" width="40" height="40" rx="10" fill="black"/>
<rect x="298.5" y="298.5" width="95" height="95" rx="17.5" stroke="black" stroke-width="5"/>
<rect x="326" y="326" width="40" height="40" rx="10" fill="black"/>
<rect x="2.5" y="2.5" width="95" height="95" rx="17.5" stroke="black" stroke-width="5"/>
<rect x="30" y="30" width="40" height="40" rx="10" fill="black"/>
<rect x="298.5" y="2.5" width="95" height="95" rx="17.5" stroke="black" stroke-width="5"/>
<rect x="326" y="30" width="40" height="40" rx="10" fill="black"/>
<rect x="594.5" y="298.5" width="95" height="95" rx="17.5" stroke="black" stroke-width="5"/>
<rect x="622" y="326" width="40" height="40" rx="10" fill="black"/>
<rect x="594.5" y="2.5" width="95" height="95" rx="17.5" stroke="black" stroke-width="5"/>
<rect x="622" y="30" width="40" height="40" rx="10" fill="black"/>
</svg>
