<svg width="100" height="100" viewBox="0 0 100 100" fill="none" xmlns="http://www.w3.org/2000/svg">
<rect x="2.5" y="2.5" width="95" height="95" rx="17.5" stroke="black" stroke-width="5"/>
<path d="M50 72.75C62.5645 72.75 72.75 62.5645 72.75 50C72.75 37.4355 62.5645 27.25 50 27.25C37.4355 27.25 27.25 37.4355 27.25 50C27.25 62.5645 37.4355 72.75 50 72.75Z" stroke="black" stroke-width="2.5"/>
<path d="M50 64.75C58.1462 64.75 64.75 58.1462 64.75 50C64.75 41.8538 58.1462 35.25 50 35.25C41.8538 35.25 35.25 41.8538 35.25 50C35.25 58.1462 41.8538 64.75 50 64.75Z" stroke="black" stroke-width="2.5"/>
<path d="M50 55.75C53.1756 55.75 55.75 53.1756 55.75 50C55.75 46.8244 53.1756 44.25 50 44.25C46.8244 44.25 44.25 46.8244 44.25 50C44.25 53.1756 46.8244 55.75 50 55.75Z" stroke="black" stroke-width="2.5"/>
</svg>
