<svg width="100" height="144" viewBox="0 0 100 144" fill="none" xmlns="http://www.w3.org/2000/svg">
<rect x="2.5" y="141.5" width="139" height="95" rx="17.5" transform="rotate(-90 2.5 141.5)" stroke="black" stroke-width="5"/>
<path d="M34.2002 45.6V98.4C34.2002 100.057 35.5433 101.4 37.2002 101.4H63.6002C65.257 101.4 66.6002 100.057 66.6002 98.4V45.6C66.6002 43.9432 65.257 42.6 63.6002 42.6H37.2002C35.5433 42.6 34.2002 43.9432 34.2002 45.6Z" stroke="black" stroke-width="2.5" stroke-linecap="round" stroke-linejoin="round"/>
<path d="M41.3999 53.6V90.4C41.3999 92.0569 42.743 93.4 44.3999 93.4H56.3999C58.0568 93.4 59.3999 92.0569 59.3999 90.4V53.6C59.3999 51.9432 58.0568 50.6 56.3999 50.6H44.3999C42.743 50.6 41.3999 51.9432 41.3999 53.6Z" stroke="black" stroke-width="2.5" stroke-linecap="round" stroke-linejoin="round"/>
<mask id="mask0" mask-type="alpha" maskUnits="userSpaceOnUse" x="45" y="54" width="8" height="36">
<path d="M45.2002 56V88C45.2002 88.8836 45.9165 89.6 46.8002 89.6H50.8002C51.6839 89.6 52.4002 88.8836 52.4002 88V56C52.4002 55.1163 51.6839 54.4 50.8002 54.4H46.8002C45.9165 54.4 45.2002 55.1163 45.2002 56Z" fill="white"/>
</mask>
<g mask="url(#mask0)">
<path d="M45.2002 56V88C45.2002 88.8836 45.9165 89.6 46.8002 89.6H50.8002C51.6839 89.6 52.4002 88.8836 52.4002 88V56C52.4002 55.1163 51.6839 54.4 50.8002 54.4H46.8002C45.9165 54.4 45.2002 55.1163 45.2002 56Z" stroke="black" stroke-width="5" stroke-linecap="round" stroke-linejoin="round"/>
<path d="M53.9998 83.2C53.9998 82.3164 53.2835 81.6 52.3998 81.6C51.5161 81.6 50.7998 82.3164 50.7998 83.2C50.7998 84.0837 51.5161 84.8 52.3998 84.8C53.2835 84.8 53.9998 84.0837 53.9998 83.2Z" fill="black"/>
<path d="M53.9998 76C53.9998 75.1163 53.2835 74.4 52.3998 74.4C51.5161 74.4 50.7998 75.1163 50.7998 76C50.7998 76.8836 51.5161 77.6 52.3998 77.6C53.2835 77.6 53.9998 76.8836 53.9998 76Z" fill="black"/>
<path d="M53.9998 68.8C53.9998 67.9164 53.2835 67.2 52.3998 67.2C51.5161 67.2 50.7998 67.9164 50.7998 68.8C50.7998 69.6837 51.5161 70.4 52.3998 70.4C53.2835 70.4 53.9998 69.6837 53.9998 68.8Z" fill="black"/>
<path d="M53.9998 61.6C53.9998 60.7163 53.2835 60 52.3998 60C51.5161 60 50.7998 60.7163 50.7998 61.6C50.7998 62.4836 51.5161 63.2 52.3998 63.2C53.2835 63.2 53.9998 62.4836 53.9998 61.6Z" fill="black"/>
<path d="M14.2002 36.2L14.2002 107.8H85.8002V36.2H14.2002Z" stroke="black" stroke-width="2.5"/>
</g>
</svg>
