<svg width="230" height="230" viewBox="0 0 230 230" fill="none" xmlns="http://www.w3.org/2000/svg">
<path d="M114 85C124.493 85 133 76.4934 133 66C133 55.5066 124.493 47 114 47C103.507 47 95 55.5066 95 66C95 76.4934 103.507 85 114 85Z" fill="black"/>
<path d="M71 127C77.6274 127 83 121.627 83 115C83 108.373 77.6274 103 71 103C64.3726 103 59 108.373 59 115C59 121.627 64.3726 127 71 127Z" fill="black"/>
<path d="M157 127C163.627 127 169 121.627 169 115C169 108.373 163.627 103 157 103C150.373 103 145 108.373 145 115C145 121.627 150.373 127 157 127Z" fill="black"/>
<path d="M157 167C163.627 167 169 161.627 169 155C169 148.373 163.627 143 157 143C150.373 143 145 148.373 145 155C145 161.627 150.373 167 157 167Z" fill="black"/>
<path d="M72 169C79.1797 169 85 163.18 85 156C85 148.82 79.1797 143 72 143C64.8203 143 59 148.82 59 156C59 163.18 64.8203 169 72 169Z" fill="black"/>
<path d="M91 143H79V177H91V143Z" fill="black"/>
<path d="M149 139H137V181H149V139Z" fill="black"/>
<rect x="1.5" y="1.5" width="227" height="227" stroke="black" stroke-width="3"/>
</svg>
