<svg width="100" height="100" viewBox="0 0 100 100" fill="none" xmlns="http://www.w3.org/2000/svg">
<path d="M54.9375 60.7733H44.0625M54.9375 60.7733H64L61.4534 57.7854C61.1115 57.384 60.8402 56.9076 60.6552 56.3832C60.4701 55.8589 60.3749 55.2969 60.375 54.7293V48.0133C60.3753 45.374 59.6782 42.7995 58.3799 40.6442C57.0815 38.4889 55.2456 36.8589 53.125 35.9785V35.2533C53.125 34.1253 52.7431 33.0434 52.0633 32.2458C51.3834 31.4481 50.4614 31 49.5 31C48.5386 31 47.6166 31.4481 46.9367 32.2458C46.2569 33.0434 45.875 34.1253 45.875 35.2533V35.9785C41.6519 37.7309 38.625 42.4585 38.625 48.0133V54.7315C38.625 55.8756 38.2371 56.9751 37.5466 57.7854L35 60.7733H44.0625H54.9375ZM54.9375 60.7733V62.9C54.9375 64.5921 54.3646 66.2149 53.3449 67.4113C52.3252 68.6078 50.9421 69.28 49.5 69.28C48.0579 69.28 46.6748 68.6078 45.6551 67.4113C44.6354 66.2149 44.0625 64.5921 44.0625 62.9V60.7733H54.9375Z" stroke="black" stroke-width="2.5" stroke-linecap="round" stroke-linejoin="round"/>
<path d="M73.2 41C76.8222 44.3542 81.8933 53.25 73.2 62" stroke="black" stroke-width="2.5" stroke-linecap="round" stroke-linejoin="round"/>
<path d="M70 44.5C72.4148 46.7361 75.7955 52.6667 70 58.5" stroke="black" stroke-width="2.5" stroke-linecap="round" stroke-linejoin="round"/>
<path d="M26.1334 62C22.5112 58.8056 17.4401 50.3333 26.1334 42" stroke="black" stroke-width="2.5" stroke-linecap="round" stroke-linejoin="round"/>
<path d="M29.3333 58.6667C26.9185 56.537 23.5378 50.8889 29.3333 45.3333" stroke="black" stroke-width="2.5" stroke-linecap="round" stroke-linejoin="round"/>
<circle cx="49.5" cy="50.5" r="37.25" stroke="black" stroke-width="2.5"/>
<circle cx="49.5" cy="50.5" r="43.25" stroke="black" stroke-width="2.5"/>
</svg>
