<svg width="100" height="100" viewBox="0 0 100 100" fill="none" xmlns="http://www.w3.org/2000/svg">
<path fill-rule="evenodd" clip-rule="evenodd" d="M28.5 19.021V43.2459L48.3389 51.3012V28.1394C48.237 28.1212 48.1354 28.0897 48.0363 28.0439L28.5 19.021ZM50.8114 27.843C50.8294 27.9275 50.8389 28.0152 50.8389 28.1051V50.9546L71.0877 42.239C71.2247 42.18 71.3657 42.1477 71.5052 42.1398V18.5578C71.4128 18.6379 71.3075 18.7058 71.1909 18.7578L50.8114 27.843ZM49.5253 53.9634C49.7774 54.0289 50.0533 54.0135 50.3144 53.9011L72.0118 44.5619C72.2611 44.4546 72.4598 44.2749 72.5938 44.0574C72.6466 44.0642 72.7005 44.0677 72.7552 44.0677C73.4456 44.0677 74.0052 43.5081 74.0052 42.8177V17.7776C74.0052 17.137 73.5233 16.6089 72.9023 16.5361C72.8755 16.0687 72.5946 15.6296 72.1432 15.4284L51.2603 6.11875C50.8266 5.92539 50.3485 6.00207 50.0066 6.27654C49.6679 5.99652 49.1895 5.913 48.7525 6.10095L27.0517 15.4324C26.4642 15.685 26.1574 16.3394 26.3183 16.9442C26.1204 17.1653 26 17.4574 26 17.7776V43.6783C26 44.0548 26.1665 44.3925 26.4298 44.6216C26.5454 44.9628 26.8022 45.2541 27.1582 45.3986L48.0294 53.873C48.3706 54.0116 48.7341 53.9872 49.0361 53.8364C49.1849 53.9098 49.3503 53.9546 49.5253 53.9634ZM49.1932 25.8429C49.2446 25.8104 49.2987 25.7813 49.3556 25.7559L69.2638 16.8808L50.308 8.43025C50.1908 8.37804 50.0852 8.3098 49.9925 8.2292C49.8995 8.30747 49.7939 8.37344 49.6773 8.42358L29.9146 16.9217L49.0194 25.7454C49.0806 25.7736 49.1387 25.8063 49.1932 25.8429Z" fill="black"/>
<path fill-rule="evenodd" clip-rule="evenodd" d="M5.5 56.021V80.2459L25.3389 88.3012V65.1394C25.237 65.1212 25.1354 65.0897 25.0363 65.0439L5.5 56.021ZM27.8114 64.843C27.8294 64.9275 27.8389 65.0152 27.8389 65.1051V87.9546L48.0877 79.239C48.2247 79.18 48.3657 79.1477 48.5052 79.1398V55.5578C48.4128 55.6379 48.3075 55.7058 48.1909 55.7578L27.8114 64.843ZM26.5253 90.9634C26.7774 91.0289 27.0533 91.0135 27.3144 90.9011L49.0118 81.5619C49.2611 81.4546 49.4598 81.2749 49.5938 81.0574C49.6466 81.0642 49.7005 81.0677 49.7552 81.0677C50.4456 81.0677 51.0052 80.5081 51.0052 79.8177V54.7776C51.0052 54.137 50.5233 53.6089 49.9023 53.5361C49.8755 53.0687 49.5946 52.6296 49.1432 52.4284L28.2603 43.1188C27.8266 42.9254 27.3485 43.0021 27.0066 43.2765C26.6679 42.9965 26.1895 42.913 25.7525 43.1009L4.05166 52.4324C3.46423 52.685 3.15745 53.3394 3.31832 53.9442C3.12037 54.1653 3 54.4574 3 54.7776V80.6783C3 81.0548 3.16646 81.3925 3.4298 81.6216C3.54537 81.9628 3.80223 82.2541 4.15817 82.3986L25.0294 90.873C25.3706 91.0116 25.7341 90.9872 26.0361 90.8364C26.1849 90.9098 26.3503 90.9546 26.5253 90.9634ZM26.1932 62.8429C26.2446 62.8104 26.2987 62.7813 26.3556 62.7559L46.2638 53.8808L27.308 45.4303C27.1908 45.378 27.0852 45.3098 26.9925 45.2292C26.8995 45.3075 26.7939 45.3734 26.6773 45.4236L6.91458 53.9217L26.0194 62.7454C26.0806 62.7736 26.1387 62.8063 26.1932 62.8429Z" fill="black"/>
<path fill-rule="evenodd" clip-rule="evenodd" d="M50.5 55.021V79.2459L70.3389 87.3012V64.1394C70.237 64.1212 70.1354 64.0897 70.0363 64.0439L50.5 55.021ZM72.8114 63.843C72.8294 63.9275 72.8389 64.0152 72.8389 64.1051V86.9546L93.0877 78.239C93.2247 78.18 93.3657 78.1477 93.5052 78.1398V54.5578C93.4128 54.6379 93.3075 54.7058 93.1909 54.7578L72.8114 63.843ZM71.5253 89.9634C71.7774 90.0289 72.0533 90.0135 72.3144 89.9011L94.0118 80.5619C94.2611 80.4546 94.4598 80.2749 94.5938 80.0574C94.6466 80.0642 94.7005 80.0677 94.7552 80.0677C95.4456 80.0677 96.0052 79.5081 96.0052 78.8177V53.7776C96.0052 53.137 95.5233 52.6089 94.9023 52.5361C94.8755 52.0687 94.5946 51.6296 94.1432 51.4284L73.2603 42.1188C72.8266 41.9254 72.3485 42.0021 72.0066 42.2765C71.6679 41.9965 71.1895 41.913 70.7525 42.1009L49.0517 51.4324C48.4642 51.685 48.1574 52.3394 48.3183 52.9442C48.1204 53.1653 48 53.4574 48 53.7776V79.6783C48 80.0548 48.1665 80.3925 48.4298 80.6216C48.5454 80.9628 48.8022 81.2541 49.1582 81.3986L70.0294 89.873C70.3706 90.0116 70.7341 89.9872 71.0361 89.8364C71.1849 89.9098 71.3503 89.9546 71.5253 89.9634ZM71.1932 61.8429C71.2446 61.8104 71.2987 61.7813 71.3556 61.7559L91.2638 52.8808L72.308 44.4303C72.1908 44.378 72.0852 44.3098 71.9925 44.2292C71.8995 44.3075 71.7939 44.3734 71.6773 44.4236L51.9146 52.9217L71.0194 61.7454C71.0806 61.7736 71.1387 61.8063 71.1932 61.8429Z" fill="black"/>
</svg>
