<svg width="100" height="100" viewBox="0 0 100 100" fill="none" xmlns="http://www.w3.org/2000/svg">
<rect x="9.25" y="18.25" width="83.5" height="64.5" stroke="black" stroke-width="2.5"/>
<path fill-rule="evenodd" clip-rule="evenodd" d="M70 36V36.5V38V39H77V75H25V39H34V38V36.5V36H25H22V39V75V78H25H77H80V75V39V36H77H70Z" fill="black"/>
<line x1="32.75" y1="37" x2="32.75" y2="28" stroke="black" stroke-width="2.5"/>
<line x1="32" y1="29.5" x2="42" y2="29.5" stroke="black" stroke-width="3"/>
<line x1="40.5" y1="30" x2="40.5" y2="23" stroke="black" stroke-width="3"/>
<line x1="39" y1="23.5" x2="64" y2="23.5" stroke="black" stroke-width="3"/>
<line x1="62.5" y1="23" x2="62.5" y2="30" stroke="black" stroke-width="3"/>
<line x1="63" y1="28.5" x2="72" y2="28.5" stroke="black" stroke-width="3"/>
<line x1="71.5" y1="27" x2="71.5" y2="36" stroke="black" stroke-width="3"/>
<line x1="31.25" y1="59" x2="31.25" y2="75" stroke="black" stroke-width="2.5"/>
<line x1="39.25" y1="59" x2="39.25" y2="75" stroke="black" stroke-width="2.5"/>
<line x1="47.25" y1="59" x2="47.25" y2="75" stroke="black" stroke-width="2.5"/>
<line x1="55.25" y1="59" x2="55.25" y2="75" stroke="black" stroke-width="2.5"/>
<line x1="63.25" y1="59" x2="63.25" y2="75" stroke="black" stroke-width="2.5"/>
<line x1="71.25" y1="59" x2="71.25" y2="75" stroke="black" stroke-width="2.5"/>
</svg>
