<svg width="100" height="100" viewBox="0 0 100 100" fill="none" xmlns="http://www.w3.org/2000/svg">
<rect x="9.25" y="18.25" width="83.5" height="64.5" stroke="black" stroke-width="2.5"/>
<path fill-rule="evenodd" clip-rule="evenodd" d="M32 65V64.5V63V62H25L25 26L77 26V62H68V63V64.5V65H77H80V62V26V23H77L25 23H22V26L22 62V65H25H32Z" fill="black"/>
<line x1="69.25" y1="64" x2="69.25" y2="73" stroke="black" stroke-width="2.5"/>
<line x1="70" y1="71.5" x2="60" y2="71.5" stroke="black" stroke-width="3"/>
<line x1="61.5" y1="71" x2="61.5" y2="78" stroke="black" stroke-width="3"/>
<line x1="63" y1="77.5" x2="38" y2="77.5" stroke="black" stroke-width="3"/>
<line x1="39.5" y1="78" x2="39.5" y2="71" stroke="black" stroke-width="3"/>
<line x1="39" y1="72.5" x2="30" y2="72.5" stroke="black" stroke-width="3"/>
<line x1="30.5" y1="74" x2="30.5" y2="65" stroke="black" stroke-width="3"/>
<line x1="70.75" y1="42" x2="70.75" y2="26" stroke="black" stroke-width="2.5"/>
<line x1="62.75" y1="42" x2="62.75" y2="26" stroke="black" stroke-width="2.5"/>
<line x1="54.75" y1="42" x2="54.75" y2="26" stroke="black" stroke-width="2.5"/>
<line x1="46.75" y1="42" x2="46.75" y2="26" stroke="black" stroke-width="2.5"/>
<line x1="38.75" y1="42" x2="38.75" y2="26" stroke="black" stroke-width="2.5"/>
<line x1="30.75" y1="42" x2="30.75" y2="26" stroke="black" stroke-width="2.5"/>
<line x1="10" y1="72.75" x2="30" y2="72.75" stroke="black" stroke-width="2.5"/>
<line x1="70" y1="71.75" x2="93" y2="71.75" stroke="black" stroke-width="2.5"/>
</svg>
