<svg width="100" height="100" viewBox="0 0 100 100" fill="none" xmlns="http://www.w3.org/2000/svg">
<path fill-rule="evenodd" clip-rule="evenodd" d="M12.1161 7.11612L4.16116 15.0711C3.67301 15.5592 3.67301 16.3507 4.16116 16.8388C4.64932 17.327 5.44077 17.327 5.92893 16.8388L11.75 11.0178V90H13V90.25H91.9822L86.1612 96.0711C85.673 96.5592 85.673 97.3507 86.1612 97.8388C86.6493 98.327 87.4408 98.327 87.9289 97.8388L95.8839 89.8839C96.372 89.3957 96.372 88.6043 95.8839 88.1161L87.9289 80.1612C87.4408 79.673 86.6493 79.673 86.1612 80.1612C85.673 80.6493 85.673 81.4408 86.1612 81.9289L91.9822 87.75H14.25V11.0178L20.0711 16.8388C20.5592 17.327 21.3507 17.327 21.8388 16.8388C22.327 16.3507 22.327 15.5592 21.8388 15.0711L13.8839 7.11612C13.3957 6.62796 12.6043 6.62796 12.1161 7.11612Z" fill="black"/>
<path fill-rule="evenodd" clip-rule="evenodd" d="M27.5 34.6667V63.2961L52 72.9211V45.5456C51.9521 45.5309 51.9046 45.5132 51.8577 45.4923L27.5 34.6667ZM54.5 45.3571V72.6737L79.8891 62.1679C79.9258 62.1527 79.9628 62.1394 80 62.1279L80 34.4166C79.9527 34.4447 79.903 34.4701 79.8511 34.4924L54.5 45.3571ZM53.1386 75.4951C53.4471 75.6422 53.8143 75.663 54.155 75.5221L80.845 64.4779C81.0943 64.3748 81.2925 64.2002 81.4257 63.9877C82.0329 63.9023 82.5 63.3807 82.5 62.75L82.5 33.25C82.5 32.6635 82.0961 32.1714 81.5513 32.0365C81.4556 31.6788 81.2027 31.3669 80.8359 31.2097L55.1337 20.1945C54.7594 20.0341 54.3501 20.0706 54.0215 20.2579C53.692 20.0557 53.2736 20.0088 52.8891 20.1679L26.1991 31.212C25.737 31.4032 25.4506 31.8396 25.4282 32.3081C25.1658 32.5373 25 32.8743 25 33.25V63.75C25 64.1307 25.1702 64.4717 25.4387 64.701C25.5539 65.0347 25.8091 65.3178 26.1634 65.4571L51.8366 75.5429C52.2078 75.6888 52.6068 75.6448 52.9262 75.4576C52.9949 75.476 53.0658 75.4887 53.1386 75.4951ZM53.0181 43.2838C53.0645 43.2563 53.1132 43.2316 53.1641 43.2097L77.8268 32.64L54.1489 22.4924C54.0921 22.468 54.038 22.44 53.9868 22.4086C53.9416 22.4343 53.8943 22.4575 53.845 22.4779L29.1877 32.681L52.8731 43.2078C52.9237 43.2303 52.9721 43.2557 53.0181 43.2838Z" fill="black"/>
</svg>
