<svg width="295" height="246" viewBox="0 0 295 246" fill="none" xmlns="http://www.w3.org/2000/svg">
<circle cx="94.8571" cy="126.391" r="10.9398" stroke="black" stroke-width="10"/>
<path d="M9.59399 124.04C9.59399 121.349 11.7234 119.141 14.4123 119.043L70.1641 117.016C72.9949 116.913 75.3458 119.18 75.3458 122.012V131.2C75.3458 134.02 73.0138 136.283 70.1943 136.197L14.4425 134.508C11.7413 134.426 9.59399 132.213 9.59399 129.51V124.04Z" fill="black"/>
<rect x="69.3684" y="123.203" width="13.5489" height="6.37593" fill="black"/>
<path d="M136.171 202.424C133.841 203.769 130.863 203.029 129.434 200.749L99.8027 153.48C98.2982 151.08 99.086 147.911 101.539 146.495L109.496 141.901C111.938 140.49 115.064 141.379 116.399 143.863L142.812 192.99C144.092 195.371 143.249 198.337 140.908 199.688L136.171 202.424Z" fill="black"/>
<rect x="105.559" y="151.076" width="13.5489" height="6.37593" transform="rotate(-120 105.559 151.076)" fill="black"/>
<path d="M140.589 53.8488C142.919 55.1942 143.767 58.1424 142.507 60.52L116.387 109.816C115.06 112.319 111.922 113.222 109.469 111.805L101.512 107.212C99.0693 105.801 98.276 102.65 99.7597 100.251L129.099 52.8137C130.52 50.5153 133.511 49.7623 135.851 51.1136L140.589 53.8488Z" fill="black"/>
<rect x="111.426" y="105.033" width="13.5489" height="6.37593" transform="rotate(120 111.426 105.033)" fill="black"/>
<path fill-rule="evenodd" clip-rule="evenodd" d="M105.532 42.6461C102.081 42.2196 98.5664 42 95 42C59.3756 42 28.8698 63.9155 16.2293 95H21.6567C34.0016 66.7455 62.1949 47 95 47C97.4431 47 99.8606 47.1095 102.248 47.3239L105.532 42.6461ZM10 127C10 125.322 10.0487 123.654 10.1446 122H15.1537C15.0517 123.654 15 125.321 15 127C15 128.679 15.0517 130.346 15.1537 132H10.1446C10.0487 130.346 10 128.678 10 127ZM16.2293 159C28.8698 190.084 59.3756 212 95 212C98.9905 212 102.917 211.725 106.761 211.193L103.816 206.52C100.921 206.837 97.9795 207 95 207C62.1949 207 34.0016 187.254 21.6567 159H16.2293ZM142.619 197.419C139.677 199.413 136.603 201.227 133.414 202.845L130.735 198.595C133.936 196.994 137.013 195.186 139.951 193.186L142.619 197.419ZM162.618 178.513C173.523 164.22 180 146.366 180 127C180 107.658 173.54 89.8252 162.659 75.5412L159.635 79.8487C169.297 93.0709 175 109.369 175 127C175 144.554 169.346 160.787 159.761 173.978L162.618 178.513ZM129.865 54.9769C133.393 56.6876 136.776 58.6498 139.99 60.8402L142.864 56.7474C139.652 54.5548 136.282 52.5767 132.774 50.8338L129.865 54.9769Z" fill="black"/>
<path d="M155.333 164.333V187.667L173.667 176L155.333 164.333Z" fill="black"/>
<path d="M13.3333 150.333V173.667L31.6666 162L13.3333 150.333Z" fill="black"/>
<path d="M97.3333 33.3333V56.6666L115.667 44.9999L97.3333 33.3333Z" fill="black"/>
<rect x="265" width="30" height="30" rx="10" fill="black"/>
<rect x="266" y="56" width="28" height="28" rx="10" fill="black"/>
<rect x="267" y="112" width="26" height="26" rx="10" fill="black"/>
<rect x="268" y="168" width="24" height="24" rx="10" fill="black"/>
<rect x="269" y="224" width="22" height="22" rx="10" fill="black"/>
</svg>
