<svg width="230" height="230" viewBox="0 0 230 230" fill="none" xmlns="http://www.w3.org/2000/svg">
<rect x="1.5" y="1.5" width="227" height="227" stroke="black" stroke-width="3"/>
<path d="M130 140V130H145V120H130V110H145V100H130V90H145V80H100V100H85V130H100V150H145V140H130ZM70 153.1V76.85C70 75.2896 70.3081 73.7446 70.9068 72.3036C71.5054 70.8626 72.3828 69.5541 73.4884 68.4531C74.5941 67.352 75.9064 66.4802 77.3498 65.8876C78.7933 65.2951 80.3396 64.9934 81.9 65H153.15C156.293 65 159.307 66.2485 161.529 68.4708C163.752 70.6931 165 73.7072 165 76.85V153.1C165.007 154.66 164.705 156.207 164.112 157.65C163.52 159.094 162.648 160.406 161.547 161.512C160.446 162.617 159.137 163.495 157.696 164.093C156.255 164.692 154.71 165 153.15 165H81.9C75.3 165 70 159.7 70 153.1Z" fill="black"/>
</svg>
