<svg width="230" height="230" viewBox="0 0 230 230" fill="none" xmlns="http://www.w3.org/2000/svg">
<rect x="1.5" y="1.5" width="227" height="227" stroke="black" stroke-width="3"/>
<path d="M115 149.125C133.847 149.125 149.125 133.847 149.125 115C149.125 96.1533 133.847 80.875 115 80.875C96.1533 80.875 80.875 96.1533 80.875 115C80.875 133.847 96.1533 149.125 115 149.125Z" stroke="black" stroke-width="2.5"/>
<path d="M115 137.125C127.219 137.125 137.125 127.219 137.125 115C137.125 102.781 127.219 92.875 115 92.875C102.781 92.875 92.875 102.781 92.875 115C92.875 127.219 102.781 137.125 115 137.125Z" stroke="black" stroke-width="2.5"/>
<path d="M115 123.625C119.763 123.625 123.625 119.763 123.625 115C123.625 110.237 119.763 106.375 115 106.375C110.237 106.375 106.375 110.237 106.375 115C106.375 119.763 110.237 123.625 115 123.625Z" stroke="black" stroke-width="2.5"/>
</svg>
