<svg width="230" height="230" viewBox="0 0 230 230" fill="none" xmlns="http://www.w3.org/2000/svg">
<rect x="1.5" y="1.5" width="227" height="227" stroke="black" stroke-width="3"/>
<path d="M85.375 65.5V164.5C85.375 167.607 87.8934 170.125 91 170.125H140.5C143.607 170.125 146.125 167.607 146.125 164.5V65.5C146.125 62.3934 143.607 59.875 140.5 59.875H91C87.8934 59.875 85.375 62.3934 85.375 65.5Z" stroke="black" stroke-width="2.5" stroke-linecap="round" stroke-linejoin="round"/>
<path d="M98.875 80.5V149.5C98.875 152.607 101.393 155.125 104.5 155.125H127C130.107 155.125 132.625 152.607 132.625 149.5V80.5C132.625 77.3934 130.107 74.875 127 74.875H104.5C101.393 74.875 98.875 77.3934 98.875 80.5Z" stroke="black" stroke-width="2.5" stroke-linecap="round" stroke-linejoin="round"/>
<mask id="mask0" mask-type="alpha" maskUnits="userSpaceOnUse" x="106" y="82" width="14" height="66">
<path d="M106 85V145C106 146.657 107.343 148 109 148H116.5C118.157 148 119.5 146.657 119.5 145V85C119.5 83.3431 118.157 82 116.5 82H109C107.343 82 106 83.3431 106 85Z" fill="white"/>
</mask>
<g mask="url(#mask0)">
<path d="M106 85V145C106 146.657 107.343 148 109 148H116.5C118.157 148 119.5 146.657 119.5 145V85C119.5 83.3431 118.157 82 116.5 82H109C107.343 82 106 83.3431 106 85Z" stroke="black" stroke-width="5" stroke-linecap="round" stroke-linejoin="round"/>
<path d="M122.5 136C122.5 134.343 121.157 133 119.5 133C117.843 133 116.5 134.343 116.5 136C116.5 137.657 117.843 139 119.5 139C121.157 139 122.5 137.657 122.5 136Z" fill="black"/>
<path d="M122.5 122.5C122.5 120.843 121.157 119.5 119.5 119.5C117.843 119.5 116.5 120.843 116.5 122.5C116.5 124.157 117.843 125.5 119.5 125.5C121.157 125.5 122.5 124.157 122.5 122.5Z" fill="black"/>
<path d="M122.5 109C122.5 107.343 121.157 106 119.5 106C117.843 106 116.5 107.343 116.5 109C116.5 110.657 117.843 112 119.5 112C121.157 112 122.5 110.657 122.5 109Z" fill="black"/>
<path d="M122.5 95.5C122.5 93.8432 121.157 92.5 119.5 92.5C117.843 92.5 116.5 93.8432 116.5 95.5C116.5 97.1569 117.843 98.5 119.5 98.5C121.157 98.5 122.5 97.1569 122.5 95.5Z" fill="black"/>
<path d="M47.875 47.875L47.875 182.125H182.125V47.875H47.875Z" stroke="black" stroke-width="2.5"/>
</g>
</svg>
